<mxfile host="app.diagrams.net" modified="2022-12-30T14:49:48.945Z" agent="5.0 (X11; Linux x86_64) AppleWebKit/537.36 (KHTML, like Gecko) Chrome/109.0.0.0 Safari/537.36" etag="xy4oO4q-OMewfrr6382_" version="20.7.4" type="github">
  <diagram id="Gh4KYQRpGS0ShrS6wAJs" name="Page-1">
    <mxGraphModel dx="1420" dy="800" grid="1" gridSize="10" guides="1" tooltips="1" connect="1" arrows="1" fold="1" page="1" pageScale="1" pageWidth="850" pageHeight="1100" math="0" shadow="0">
      <root>
        <mxCell id="0" />
        <mxCell id="1" parent="0" />
        <mxCell id="Uh_hPH-2-CJDBmY7lY9N-1" value="" style="rounded=0;whiteSpace=wrap;html=1;" parent="1" vertex="1">
          <mxGeometry x="180" y="240" width="500" height="470" as="geometry" />
        </mxCell>
        <mxCell id="Uh_hPH-2-CJDBmY7lY9N-2" value="Sending Letter Service" style="text;html=1;strokeColor=none;fillColor=none;align=center;verticalAlign=middle;whiteSpace=wrap;rounded=0;" parent="1" vertex="1">
          <mxGeometry x="380" y="180" width="100" height="30" as="geometry" />
        </mxCell>
        <mxCell id="Uh_hPH-2-CJDBmY7lY9N-3" value="User" style="shape=umlActor;verticalLabelPosition=bottom;verticalAlign=top;html=1;outlineConnect=0;" parent="1" vertex="1">
          <mxGeometry x="80" y="435" width="30" height="60" as="geometry" />
        </mxCell>
        <mxCell id="Uh_hPH-2-CJDBmY7lY9N-4" value="Artificial Intelligence Engine" style="rounded=0;whiteSpace=wrap;html=1;" parent="1" vertex="1">
          <mxGeometry x="730" y="435" width="120" height="60" as="geometry" />
        </mxCell>
        <mxCell id="Uh_hPH-2-CJDBmY7lY9N-5" value="Letter Writing Order" style="ellipse;whiteSpace=wrap;html=1;" parent="1" vertex="1">
          <mxGeometry x="370" y="560" width="120" height="80" as="geometry" />
        </mxCell>
        <mxCell id="Uh_hPH-2-CJDBmY7lY9N-6" value="Correspondence With Support" style="ellipse;whiteSpace=wrap;html=1;" parent="1" vertex="1">
          <mxGeometry x="370" y="290" width="120" height="80" as="geometry" />
        </mxCell>
        <mxCell id="Uh_hPH-2-CJDBmY7lY9N-7" value="Correction and Improvement of the Text" style="ellipse;whiteSpace=wrap;html=1;" parent="1" vertex="1">
          <mxGeometry x="370" y="425" width="120" height="80" as="geometry" />
        </mxCell>
        <mxCell id="Uh_hPH-2-CJDBmY7lY9N-8" value="" style="endArrow=none;html=1;rounded=0;exitX=0.5;exitY=0.5;exitDx=0;exitDy=0;exitPerimeter=0;entryX=0;entryY=0.5;entryDx=0;entryDy=0;" parent="1" source="Uh_hPH-2-CJDBmY7lY9N-3" target="Uh_hPH-2-CJDBmY7lY9N-6" edge="1">
          <mxGeometry width="50" height="50" relative="1" as="geometry">
            <mxPoint x="470" y="430" as="sourcePoint" />
            <mxPoint x="520" y="380" as="targetPoint" />
          </mxGeometry>
        </mxCell>
        <mxCell id="Uh_hPH-2-CJDBmY7lY9N-9" value="" style="endArrow=none;html=1;rounded=0;entryX=0;entryY=0.5;entryDx=0;entryDy=0;exitX=0.5;exitY=0.5;exitDx=0;exitDy=0;exitPerimeter=0;" parent="1" source="Uh_hPH-2-CJDBmY7lY9N-3" target="Uh_hPH-2-CJDBmY7lY9N-7" edge="1">
          <mxGeometry width="50" height="50" relative="1" as="geometry">
            <mxPoint x="470" y="430" as="sourcePoint" />
            <mxPoint x="520" y="380" as="targetPoint" />
          </mxGeometry>
        </mxCell>
        <mxCell id="Uh_hPH-2-CJDBmY7lY9N-10" value="" style="endArrow=none;html=1;rounded=0;entryX=0;entryY=0.5;entryDx=0;entryDy=0;exitX=0.5;exitY=0.5;exitDx=0;exitDy=0;exitPerimeter=0;" parent="1" source="Uh_hPH-2-CJDBmY7lY9N-3" target="Uh_hPH-2-CJDBmY7lY9N-5" edge="1">
          <mxGeometry width="50" height="50" relative="1" as="geometry">
            <mxPoint x="470" y="430" as="sourcePoint" />
            <mxPoint x="520" y="380" as="targetPoint" />
          </mxGeometry>
        </mxCell>
        <mxCell id="Uh_hPH-2-CJDBmY7lY9N-12" value="" style="endArrow=none;html=1;rounded=0;entryX=0;entryY=0.5;entryDx=0;entryDy=0;exitX=1;exitY=0.5;exitDx=0;exitDy=0;" parent="1" source="Uh_hPH-2-CJDBmY7lY9N-6" target="Uh_hPH-2-CJDBmY7lY9N-4" edge="1">
          <mxGeometry width="50" height="50" relative="1" as="geometry">
            <mxPoint x="487.96000000000004" y="338" as="sourcePoint" />
            <mxPoint x="720" y="455" as="targetPoint" />
          </mxGeometry>
        </mxCell>
        <mxCell id="Uh_hPH-2-CJDBmY7lY9N-13" value="" style="endArrow=none;html=1;rounded=0;entryX=0;entryY=0.5;entryDx=0;entryDy=0;exitX=1;exitY=0.5;exitDx=0;exitDy=0;" parent="1" source="Uh_hPH-2-CJDBmY7lY9N-7" target="Uh_hPH-2-CJDBmY7lY9N-4" edge="1">
          <mxGeometry width="50" height="50" relative="1" as="geometry">
            <mxPoint x="497.96000000000004" y="348" as="sourcePoint" />
            <mxPoint x="730" y="465" as="targetPoint" />
          </mxGeometry>
        </mxCell>
        <mxCell id="Uh_hPH-2-CJDBmY7lY9N-14" value="" style="endArrow=none;html=1;rounded=0;exitX=1;exitY=0.5;exitDx=0;exitDy=0;entryX=0;entryY=0.5;entryDx=0;entryDy=0;" parent="1" source="Uh_hPH-2-CJDBmY7lY9N-5" target="Uh_hPH-2-CJDBmY7lY9N-4" edge="1">
          <mxGeometry width="50" height="50" relative="1" as="geometry">
            <mxPoint x="470" y="430" as="sourcePoint" />
            <mxPoint x="520" y="390" as="targetPoint" />
          </mxGeometry>
        </mxCell>
      </root>
    </mxGraphModel>
  </diagram>
</mxfile>
